<svg xmlns="http://www.w3.org/2000/svg" width="1080" height="620" viewBox="0 0 1080 620">
<title>M2 bus voltages by scenario</title><desc>Bus voltage magnitudes across the base case and contingencies, with bus limits.</desc>
<rect width="100%" height="100%" fill="white"/>
<text x="90" y="28" font-family="sans-serif" font-size="20" font-weight="600">M2 bus voltages by scenario</text>
<line x1="90" y1="508" x2="880" y2="508" stroke="#e5e7eb"/>
<text x="80" y="512" text-anchor="end" font-family="sans-serif" font-size="12">0.884</text>
<line x1="90" y1="418" x2="880" y2="418" stroke="#e5e7eb"/>
<text x="80" y="422" text-anchor="end" font-family="sans-serif" font-size="12">0.9304</text>
<line x1="90" y1="328" x2="880" y2="328" stroke="#e5e7eb"/>
<text x="80" y="332" text-anchor="end" font-family="sans-serif" font-size="12">0.9768</text>
<line x1="90" y1="238" x2="880" y2="238" stroke="#e5e7eb"/>
<text x="80" y="242" text-anchor="end" font-family="sans-serif" font-size="12">1.0232</text>
<line x1="90" y1="148" x2="880" y2="148" stroke="#e5e7eb"/>
<text x="80" y="152" text-anchor="end" font-family="sans-serif" font-size="12">1.0696</text>
<line x1="90" y1="58" x2="880" y2="58" stroke="#e5e7eb"/>
<text x="80" y="62" text-anchor="end" font-family="sans-serif" font-size="12">1.116</text>
<rect x="90" y="58" width="790" height="450" fill="none" stroke="#374151"/>
<text x="18" y="283.0" transform="rotate(-90 18 283.0)" text-anchor="middle" font-family="sans-serif" font-size="14">Voltage magnitude (pu)</text>
<text x="90" y="533" text-anchor="middle" font-family="sans-serif" font-size="12">base</text>
<text x="485" y="533" text-anchor="middle" font-family="sans-serif" font-size="12">line_22</text>
<text x="880" y="533" text-anchor="middle" font-family="sans-serif" font-size="12">generator_9</text>
<polyline points="83,311.7208 478,318.7099 873,319.5952" fill="none" stroke="#2563eb" stroke-width="2.5"/>
<line x1="83" y1="476.9655" x2="83" y2="89.03448" stroke="#2563eb" opacity="0.22" stroke-width="5"/>
<circle cx="83" cy="311.7208" r="6" fill="#2563eb" stroke="#111827"/>
<line x1="478" y1="476.9655" x2="478" y2="89.03448" stroke="#2563eb" opacity="0.22" stroke-width="5"/>
<circle cx="478" cy="318.7099" r="6" fill="#2563eb" stroke="#111827"/>
<line x1="873" y1="476.9655" x2="873" y2="89.03448" stroke="#2563eb" opacity="0.22" stroke-width="5"/>
<circle cx="873" cy="319.5952" r="6" fill="#2563eb" stroke="#111827"/>
<line x1="905" y1="76" x2="928" y2="76" stroke="#2563eb" stroke-width="3"/>
<text x="935" y="80" font-family="sans-serif" font-size="12">Bus 10</text>
<polyline points="90,313.1677 485,307.1954 880,334.8598" fill="none" stroke="#d97706" stroke-width="2.5"/>
<line x1="90" y1="476.9655" x2="90" y2="89.03448" stroke="#d97706" opacity="0.22" stroke-width="5"/>
<circle cx="90" cy="313.1677" r="6" fill="#d97706" stroke="#111827"/>
<line x1="485" y1="476.9655" x2="485" y2="89.03448" stroke="#d97706" opacity="0.22" stroke-width="5"/>
<circle cx="485" cy="307.1954" r="6" fill="#d97706" stroke="#111827"/>
<line x1="880" y1="476.9655" x2="880" y2="89.03448" stroke="#d97706" opacity="0.22" stroke-width="5"/>
<circle cx="880" cy="334.8598" r="6" fill="#d97706" stroke="#111827"/>
<line x1="905" y1="98" x2="928" y2="98" stroke="#d97706" stroke-width="3"/>
<text x="935" y="102" font-family="sans-serif" font-size="12">Bus 20</text>
<polyline points="97,334.2525 492,364.9287 887,349.3243" fill="none" stroke="#059669" stroke-width="2.5"/>
<line x1="97" y1="476.9655" x2="97" y2="89.03448" stroke="#059669" opacity="0.22" stroke-width="5"/>
<circle cx="97" cy="334.2525" r="6" fill="#059669" stroke="#111827"/>
<line x1="492" y1="476.9655" x2="492" y2="89.03448" stroke="#059669" opacity="0.22" stroke-width="5"/>
<circle cx="492" cy="364.9287" r="6" fill="#059669" stroke="#111827"/>
<line x1="887" y1="476.9655" x2="887" y2="89.03448" stroke="#059669" opacity="0.22" stroke-width="5"/>
<circle cx="887" cy="349.3243" r="6" fill="#059669" stroke="#111827"/>
<line x1="905" y1="120" x2="928" y2="120" stroke="#059669" stroke-width="3"/>
<text x="935" y="124" font-family="sans-serif" font-size="12">Bus 30</text>
</svg>
