<svg xmlns="http://www.w3.org/2000/svg" width="1120" height="650" viewBox="0 0 1120 650">
<title>M5 independent residual checks</title><desc>Independent residuals divided by their acceptance tolerances. Values below one pass.</desc>
<rect width="100%" height="100%" fill="white"/><text x="95" y="28" font-family="sans-serif" font-size="20" font-weight="600">M5 independent residual checks</text>
<line x1="95" y1="528" x2="915" y2="528" stroke="#e5e7eb"/><text x="85" y="532" text-anchor="end" font-family="sans-serif" font-size="12">10^-6</text>
<line x1="95" y1="460.8571" x2="915" y2="460.8571" stroke="#e5e7eb"/><text x="85" y="464.8571" text-anchor="end" font-family="sans-serif" font-size="12">10^-5</text>
<line x1="95" y1="393.7143" x2="915" y2="393.7143" stroke="#e5e7eb"/><text x="85" y="397.7143" text-anchor="end" font-family="sans-serif" font-size="12">10^-4</text>
<line x1="95" y1="326.5714" x2="915" y2="326.5714" stroke="#e5e7eb"/><text x="85" y="330.5714" text-anchor="end" font-family="sans-serif" font-size="12">10^-3</text>
<line x1="95" y1="259.4286" x2="915" y2="259.4286" stroke="#e5e7eb"/><text x="85" y="263.4286" text-anchor="end" font-family="sans-serif" font-size="12">10^-2</text>
<line x1="95" y1="192.2857" x2="915" y2="192.2857" stroke="#e5e7eb"/><text x="85" y="196.2857" text-anchor="end" font-family="sans-serif" font-size="12">10^-1</text>
<line x1="95" y1="125.1429" x2="915" y2="125.1429" stroke="#e5e7eb"/><text x="85" y="129.1429" text-anchor="end" font-family="sans-serif" font-size="12">10^0</text>
<line x1="95" y1="58" x2="915" y2="58" stroke="#e5e7eb"/><text x="85" y="62" text-anchor="end" font-family="sans-serif" font-size="12">10^1</text>
<line x1="95" y1="125.1429" x2="915" y2="125.1429" stroke="#dc2626" stroke-width="2" stroke-dasharray="6,4"/><text x="923" y="129.1429" font-family="sans-serif" font-size="12">tolerance</text>
<rect x="95" y="58" width="820" height="470" fill="none" stroke="#374151"/><text x="18" y="293.0" transform="rotate(-90 18 293.0)" text-anchor="middle" font-family="sans-serif" font-size="14">Residual / tolerance (log scale)</text>
<text x="197.5" y="555" text-anchor="middle" font-family="sans-serif" font-size="12">base</text>
<rect x="123.7" y="526" width="40.344" height="2" fill="#2563eb"/>
<rect x="172.9" y="526" width="40.344" height="2" fill="#d97706"/>
<rect x="222.1" y="526" width="40.344" height="2" fill="#059669"/>
<text x="402.5" y="555" text-anchor="middle" font-family="sans-serif" font-size="12">transformer_out</text>
<rect x="328.7" y="526" width="40.344" height="2" fill="#2563eb"/>
<rect x="377.9" y="526" width="40.344" height="2" fill="#d97706"/>
<rect x="427.1" y="526" width="40.344" height="2" fill="#059669"/>
<text x="607.5" y="555" text-anchor="middle" font-family="sans-serif" font-size="12">line_out</text>
<rect x="533.7" y="526" width="40.344" height="2" fill="#2563eb"/>
<rect x="582.9" y="526" width="40.344" height="2" fill="#d97706"/>
<rect x="632.1" y="526" width="40.344" height="2" fill="#059669"/>
<text x="812.5" y="555" text-anchor="middle" font-family="sans-serif" font-size="12">generator_out</text>
<rect x="738.7" y="526" width="40.344" height="2" fill="#2563eb"/>
<rect x="787.9" y="526" width="40.344" height="2" fill="#d97706"/>
<rect x="837.1" y="526" width="40.344" height="2" fill="#059669"/>
<rect x="943" y="69" width="14" height="14" fill="#2563eb"/><text x="965" y="80" font-family="sans-serif" font-size="12">AC balance</text>
<rect x="943" y="93" width="14" height="14" fill="#d97706"/><text x="965" y="104" font-family="sans-serif" font-size="12">Exact droop</text>
<rect x="943" y="117" width="14" height="14" fill="#059669"/><text x="965" y="128" font-family="sans-serif" font-size="12">Response</text>
<text x="943" y="166" font-family="sans-serif" font-size="16" font-weight="600" fill="#059669">PASS</text></svg>
