<svg xmlns="http://www.w3.org/2000/svg" width="1280" height="680" viewBox="0 0 1280 680">
<title>Reference and optimized droop design</title><desc>Reference and optimized exact volt-var curves with training and held-out operating points.</desc>
<rect width="100%" height="100%" fill="white"/>
<text x="90" y="28" font-family="sans-serif" font-size="20" font-weight="600">Reference and optimized droop design</text>
<line x1="90" y1="58" x2="90" y2="578" stroke="#e5e7eb"/>
<text x="90" y="600" text-anchor="middle" font-family="sans-serif" font-size="12">0.9048</text>
<line x1="254" y1="58" x2="254" y2="578" stroke="#e5e7eb"/>
<text x="254" y="600" text-anchor="middle" font-family="sans-serif" font-size="12">0.94288</text>
<line x1="418" y1="58" x2="418" y2="578" stroke="#e5e7eb"/>
<text x="418" y="600" text-anchor="middle" font-family="sans-serif" font-size="12">0.98096</text>
<line x1="582" y1="58" x2="582" y2="578" stroke="#e5e7eb"/>
<text x="582" y="600" text-anchor="middle" font-family="sans-serif" font-size="12">1.01904</text>
<line x1="746" y1="58" x2="746" y2="578" stroke="#e5e7eb"/>
<text x="746" y="600" text-anchor="middle" font-family="sans-serif" font-size="12">1.05712</text>
<line x1="910" y1="58" x2="910" y2="578" stroke="#e5e7eb"/>
<text x="910" y="600" text-anchor="middle" font-family="sans-serif" font-size="12">1.0952</text>
<line x1="90" y1="578" x2="910" y2="578" stroke="#e5e7eb"/>
<text x="80" y="582" text-anchor="end" font-family="sans-serif" font-size="12">-1.16</text>
<line x1="90" y1="474" x2="910" y2="474" stroke="#e5e7eb"/>
<text x="80" y="478" text-anchor="end" font-family="sans-serif" font-size="12">-0.696</text>
<line x1="90" y1="370" x2="910" y2="370" stroke="#e5e7eb"/>
<text x="80" y="374" text-anchor="end" font-family="sans-serif" font-size="12">-0.232</text>
<line x1="90" y1="266" x2="910" y2="266" stroke="#e5e7eb"/>
<text x="80" y="270" text-anchor="end" font-family="sans-serif" font-size="12">0.232</text>
<line x1="90" y1="162" x2="910" y2="162" stroke="#e5e7eb"/>
<text x="80" y="166" text-anchor="end" font-family="sans-serif" font-size="12">0.696</text>
<line x1="90" y1="58" x2="910" y2="58" stroke="#e5e7eb"/>
<text x="80" y="62" text-anchor="end" font-family="sans-serif" font-size="12">1.16</text>
<rect x="90" y="58" width="820" height="520" fill="none" stroke="#374151"/>
<text x="500.0" y="652" text-anchor="middle" font-family="sans-serif" font-size="14">Voltage magnitude (pu)</text>
<text x="18" y="318.0" transform="rotate(-90 18 318.0)" text-anchor="middle" font-family="sans-serif" font-size="14">Reactive power Q (pu)</text>
<line x1="456.9328" y1="58" x2="456.9328" y2="578" stroke="#6b7280" stroke-dasharray="4,5" opacity="0.35"/>
<line x1="543.0672" y1="58" x2="543.0672" y2="578" stroke="#6b7280" stroke-dasharray="4,5" opacity="0.35"/>
<path d="M90 93.86207 L92.74247 93.86207 L95.48495 93.86207 L98.22742 93.86207 L100.9699 93.86207 L103.7124 93.86207 L106.4548 93.86207 L109.1973 93.86207 L111.9398 93.86207 L114.6823 93.86207 L117.4247 93.86207 L120.1672 93.86207 L122.9097 93.86207 L125.6522 93.86207 L128.3946 93.86207 L131.1371 93.86207 L133.8796 93.86207 L136.6221 95.73113 L139.3645 97.63418 L142.107 99.53723 L144.8495 101.4403 L147.592 103.3433 L150.3344 105.2464 L153.0769 107.1494 L155.8194 109.0525 L158.5619 110.9555 L161.3043 112.8586 L164.0468 114.7616 L166.7893 116.6647 L169.5318 118.5677 L172.2742 120.4708 L175.0167 122.3738 L177.7592 124.2769 L180.5017 126.1799 L183.2441 128.083 L185.9866 129.986 L188.7291 131.8891 L191.4716 133.7921 L194.214 135.6952 L196.9565 137.5982 L199.699 139.5012 L202.4415 141.4043 L205.1839 143.3073 L207.9264 145.2104 L210.6689 147.1134 L213.4114 149.0165 L216.1538 150.9195 L218.8963 152.8226 L221.6388 154.7256 L224.3813 156.6287 L227.1237 158.5317 L229.8662 160.4348 L232.6087 162.3378 L235.3512 164.2409 L238.0936 166.1439 L240.8361 168.047 L243.5786 169.95 L246.3211 171.8531 L249.0635 173.7561 L251.806 175.6592 L254.5485 177.5622 L257.291 179.4653 L260.0334 181.3683 L262.7759 183.2714 L265.5184 185.1744 L268.2609 187.0775 L271.0033 188.9805 L273.7458 190.8836 L276.4883 192.7866 L279.2308 194.6897 L281.9732 196.5927 L284.7157 198.4958 L287.4582 200.3988 L290.2007 202.3018 L292.9431 204.2049 L295.6856 206.1079 L298.4281 208.011 L301.1706 209.914 L303.913 211.8171 L306.6555 213.7201 L309.398 215.6232 L312.1405 217.5262 L314.8829 219.4293 L317.6254 221.3323 L320.3679 223.2354 L323.1104 225.1384 L325.8528 227.0415 L328.5953 228.9445 L331.3378 230.8476 L334.0803 232.7506 L336.8227 234.6537 L339.5652 236.5567 L342.3077 238.4598 L345.0502 240.3628 L347.7926 242.2659 L350.5351 244.1689 L353.2776 246.072 L356.0201 247.975 L358.7625 249.8781 L361.505 251.7811 L364.2475 253.6842 L366.99 255.5872 L369.7324 257.4903 L372.4749 259.3933 L375.2174 261.2964 L377.9599 263.1994 L380.7023 265.1024 L383.4448 267.0055 L386.1873 268.9085 L388.9298 270.8116 L391.6722 272.7146 L394.4147 274.6177 L397.1572 276.5207 L399.8997 278.4238 L402.6421 280.3268 L405.3846 282.2299 L408.1271 284.1329 L410.8696 286.036 L413.612 287.939 L416.3545 289.8421 L419.097 291.7451 L421.8395 293.6482 L424.5819 295.5512 L427.3244 297.4543 L430.0669 299.3573 L432.8094 301.2604 L435.5518 303.1634 L438.2943 305.0665 L441.0368 306.9695 L443.7793 308.8726 L446.5217 310.7756 L449.2642 312.6787 L452.0067 314.5817 L454.7492 316.4848 L457.4916 318 L460.2341 318 L462.9766 318 L465.7191 318 L468.4615 318 L471.204 318 L473.9465 318 L476.689 318 L479.4314 318 L482.1739 318 L484.9164 318 L487.6589 318 L490.4013 318 L493.1438 318 L495.8863 318 L498.6288 318 L501.3712 318 L504.1137 318 L506.8562 318 L509.5987 318 L512.3411 318 L515.0836 318 L517.8261 318 L520.5686 318 L523.311 318 L526.0535 318 L528.796 318 L531.5385 318 L534.2809 318 L537.0234 318 L539.7659 318 L542.5084 318 L545.2508 319.5152 L547.9933 321.4183 L550.7358 323.3213 L553.4783 325.2244 L556.2207 327.1274 L558.9632 329.0305 L561.7057 330.9335 L564.4482 332.8366 L567.1906 334.7396 L569.9331 336.6427 L572.6756 338.5457 L575.4181 340.4488 L578.1605 342.3518 L580.903 344.2549 L583.6455 346.1579 L586.388 348.061 L589.1304 349.964 L591.8729 351.8671 L594.6154 353.7701 L597.3579 355.6732 L600.1003 357.5762 L602.8428 359.4793 L605.5853 361.3823 L608.3278 363.2854 L611.0702 365.1884 L613.8127 367.0915 L616.5552 368.9945 L619.2977 370.8976 L622.0401 372.8006 L624.7826 374.7036 L627.5251 376.6067 L630.2676 378.5097 L633.01 380.4128 L635.7525 382.3158 L638.495 384.2189 L641.2375 386.1219 L643.9799 388.025 L646.7224 389.928 L649.4649 391.8311 L652.2074 393.7341 L654.9498 395.6372 L657.6923 397.5402 L660.4348 399.4433 L663.1773 401.3463 L665.9197 403.2494 L668.6622 405.1524 L671.4047 407.0555 L674.1472 408.9585 L676.8896 410.8616 L679.6321 412.7646 L682.3746 414.6677 L685.1171 416.5707 L687.8595 418.4738 L690.602 420.3768 L693.3445 422.2799 L696.087 424.1829 L698.8294 426.086 L701.5719 427.989 L704.3144 429.8921 L707.0569 431.7951 L709.7993 433.6982 L712.5418 435.6012 L715.2843 437.5042 L718.0268 439.4073 L720.7692 441.3103 L723.5117 443.2134 L726.2542 445.1164 L728.9967 447.0195 L731.7391 448.9225 L734.4816 450.8256 L737.2241 452.7286 L739.9666 454.6317 L742.709 456.5347 L745.4515 458.4378 L748.194 460.3408 L750.9365 462.2439 L753.6789 464.1469 L756.4214 466.05 L759.1639 467.953 L761.9064 469.8561 L764.6488 471.7591 L767.3913 473.6622 L770.1338 475.5652 L772.8763 477.4683 L775.6187 479.3713 L778.3612 481.2744 L781.1037 483.1774 L783.8462 485.0805 L786.5886 486.9835 L789.3311 488.8866 L792.0736 490.7896 L794.8161 492.6927 L797.5585 494.5957 L800.301 496.4988 L803.0435 498.4018 L805.786 500.3048 L808.5284 502.2079 L811.2709 504.1109 L814.0134 506.014 L816.7559 507.917 L819.4983 509.8201 L822.2408 511.7231 L824.9833 513.6262 L827.7258 515.5292 L830.4682 517.4323 L833.2107 519.3353 L835.9532 521.2384 L838.6957 523.1414 L841.4381 525.0445 L844.1806 526.9475 L846.9231 528.8506 L849.6656 530.7536 L852.408 532.6567 L855.1505 534.5597 L857.893 536.4628 L860.6355 538.3658 L863.3779 540.2689 L866.1204 542.1379 L868.8629 542.1379 L871.6054 542.1379 L874.3478 542.1379 L877.0903 542.1379 L879.8328 542.1379 L882.5753 542.1379 L885.3177 542.1379 L888.0602 542.1379 L890.8027 542.1379 L893.5452 542.1379 L896.2876 542.1379 L899.0301 542.1379 L901.7726 542.1379 L904.5151 542.1379 L907.2575 542.1379 L910 542.1379 " fill="none" stroke="#6b7280" stroke-width="3" stroke-dasharray="10,6"/>
<line x1="462.2179" y1="58" x2="462.2179" y2="578" stroke="#2563eb" stroke-dasharray="4,5" opacity="0.35"/>
<line x1="545.7098" y1="58" x2="545.7098" y2="578" stroke="#2563eb" stroke-dasharray="4,5" opacity="0.35"/>
<path d="M90 93.86207 L92.74247 93.86207 L95.48495 93.86207 L98.22742 93.86207 L100.9699 93.86207 L103.7124 93.86207 L106.4548 93.86207 L109.1973 93.86207 L111.9398 93.86207 L114.6823 93.86207 L117.4247 93.86207 L120.1672 93.86207 L122.9097 93.86207 L125.6522 93.86207 L128.3946 93.86207 L131.1371 93.86207 L133.8796 93.86207 L136.6221 93.86207 L139.3645 93.86207 L142.107 93.86207 L144.8495 93.86207 L147.592 93.86207 L150.3344 93.86207 L153.0769 93.86207 L155.8194 93.86207 L158.5619 93.86207 L161.3043 93.86207 L164.0468 93.86207 L166.7893 93.86207 L169.5318 93.86207 L172.2742 93.86207 L175.0167 93.86207 L177.7592 93.86207 L180.5017 93.86207 L183.2441 93.86207 L185.9866 93.86207 L188.7291 94.69967 L191.4716 96.93887 L194.214 99.17807 L196.9565 101.4173 L199.699 103.6565 L202.4415 105.8957 L205.1839 108.1349 L207.9264 110.3741 L210.6689 112.6133 L213.4114 114.8525 L216.1538 117.0917 L218.8963 119.3308 L221.6388 121.57 L224.3813 123.8092 L227.1237 126.0484 L229.8662 128.2876 L232.6087 130.5268 L235.3512 132.766 L238.0936 135.0052 L240.8361 137.2444 L243.5786 139.4836 L246.3211 141.7228 L249.0635 143.962 L251.806 146.2012 L254.5485 148.4404 L257.291 150.6796 L260.0334 152.9188 L262.7759 155.158 L265.5184 157.3972 L268.2609 159.6364 L271.0033 161.8756 L273.7458 164.1148 L276.4883 166.354 L279.2308 168.5932 L281.9732 170.8324 L284.7157 173.0716 L287.4582 175.3108 L290.2007 177.55 L292.9431 179.7892 L295.6856 182.0284 L298.4281 184.2676 L301.1706 186.5068 L303.913 188.746 L306.6555 190.9852 L309.398 193.2244 L312.1405 195.4636 L314.8829 197.7028 L317.6254 199.942 L320.3679 202.1812 L323.1104 204.4204 L325.8528 206.6596 L328.5953 208.8988 L331.3378 211.138 L334.0803 213.3772 L336.8227 215.6164 L339.5652 217.8555 L342.3077 220.0947 L345.0502 222.3339 L347.7926 224.5731 L350.5351 226.8123 L353.2776 229.0515 L356.0201 231.2907 L358.7625 233.5299 L361.505 235.7691 L364.2475 238.0083 L366.99 240.2475 L369.7324 242.4867 L372.4749 244.7259 L375.2174 246.9651 L377.9599 249.2043 L380.7023 251.4435 L383.4448 253.6827 L386.1873 255.9219 L388.9298 258.1611 L391.6722 260.4003 L394.4147 262.6395 L397.1572 264.8787 L399.8997 267.1179 L402.6421 269.3571 L405.3846 271.5963 L408.1271 273.8355 L410.8696 276.0747 L413.612 278.3139 L416.3545 280.5531 L419.097 282.7923 L421.8395 285.0315 L424.5819 287.2707 L427.3244 289.5099 L430.0669 291.7491 L432.8094 293.9883 L435.5518 296.2275 L438.2943 298.4667 L441.0368 300.7059 L443.7793 302.9451 L446.5217 305.1843 L449.2642 307.4235 L452.0067 309.6627 L454.7492 311.9019 L457.4916 314.141 L460.2341 316.3802 L462.9766 318 L465.7191 318 L468.4615 318 L471.204 318 L473.9465 318 L476.689 318 L479.4314 318 L482.1739 318 L484.9164 318 L487.6589 318 L490.4013 318 L493.1438 318 L495.8863 318 L498.6288 318 L501.3712 318 L504.1137 318 L506.8562 318 L509.5987 318 L512.3411 318 L515.0836 318 L517.8261 318 L520.5686 318 L523.311 318 L526.0535 318 L528.796 318 L531.5385 318 L534.2809 318 L537.0234 318 L539.7659 318 L542.5084 318 L545.2508 318 L547.9933 319.8645 L550.7358 322.1037 L553.4783 324.3429 L556.2207 326.5821 L558.9632 328.8212 L561.7057 331.0604 L564.4482 333.2996 L567.1906 335.5388 L569.9331 337.778 L572.6756 340.0172 L575.4181 342.2564 L578.1605 344.4956 L580.903 346.7348 L583.6455 348.974 L586.388 351.2132 L589.1304 353.4524 L591.8729 355.6916 L594.6154 357.9308 L597.3579 360.17 L600.1003 362.4092 L602.8428 364.6484 L605.5853 366.8876 L608.3278 369.1268 L611.0702 371.366 L613.8127 373.6052 L616.5552 375.8444 L619.2977 378.0836 L622.0401 380.3228 L624.7826 382.562 L627.5251 384.8012 L630.2676 387.0404 L633.01 389.2796 L635.7525 391.5188 L638.495 393.758 L641.2375 395.9972 L643.9799 398.2364 L646.7224 400.4756 L649.4649 402.7148 L652.2074 404.954 L654.9498 407.1932 L657.6923 409.4324 L660.4348 411.6716 L663.1773 413.9108 L665.9197 416.15 L668.6622 418.3892 L671.4047 420.6284 L674.1472 422.8676 L676.8896 425.1068 L679.6321 427.3459 L682.3746 429.5851 L685.1171 431.8243 L687.8595 434.0635 L690.602 436.3027 L693.3445 438.5419 L696.087 440.7811 L698.8294 443.0203 L701.5719 445.2595 L704.3144 447.4987 L707.0569 449.7379 L709.7993 451.9771 L712.5418 454.2163 L715.2843 456.4555 L718.0268 458.6947 L720.7692 460.9339 L723.5117 463.1731 L726.2542 465.4123 L728.9967 467.6515 L731.7391 469.8907 L734.4816 472.1299 L737.2241 474.3691 L739.9666 476.6083 L742.709 478.8475 L745.4515 481.0867 L748.194 483.3259 L750.9365 485.5651 L753.6789 487.8043 L756.4214 490.0435 L759.1639 492.2827 L761.9064 494.5219 L764.6488 496.7611 L767.3913 499.0003 L770.1338 501.2395 L772.8763 503.4787 L775.6187 505.7179 L778.3612 507.9571 L781.1037 510.1963 L783.8462 512.4355 L786.5886 514.6747 L789.3311 516.9139 L792.0736 519.1531 L794.8161 521.3923 L797.5585 523.6315 L800.301 525.8706 L803.0435 528.1098 L805.786 530.349 L808.5284 532.5882 L811.2709 534.8274 L814.0134 537.0666 L816.7559 539.3058 L819.4983 541.545 L822.2408 542.1379 L824.9833 542.1379 L827.7258 542.1379 L830.4682 542.1379 L833.2107 542.1379 L835.9532 542.1379 L838.6957 542.1379 L841.4381 542.1379 L844.1806 542.1379 L846.9231 542.1379 L849.6656 542.1379 L852.408 542.1379 L855.1505 542.1379 L857.893 542.1379 L860.6355 542.1379 L863.3779 542.1379 L866.1204 542.1379 L868.8629 542.1379 L871.6054 542.1379 L874.3478 542.1379 L877.0903 542.1379 L879.8328 542.1379 L882.5753 542.1379 L885.3177 542.1379 L888.0602 542.1379 L890.8027 542.1379 L893.5452 542.1379 L896.2876 542.1379 L899.0301 542.1379 L901.7726 542.1379 L904.5151 542.1379 L907.2575 542.1379 L910 542.1379 " fill="none" stroke="#2563eb" stroke-width="3"/>
<line x1="935" y1="76" x2="958" y2="76" stroke="#6b7280" stroke-width="3" stroke-dasharray="10,6"/>
<text x="965" y="80" font-family="sans-serif" font-size="12">Reference control 2</text>
<line x1="935" y1="102" x2="958" y2="102" stroke="#2563eb" stroke-width="3"/>
<text x="965" y="106" font-family="sans-serif" font-size="12">Optimized control 2</text>
<circle cx="948" cy="140" r="6" fill="#2563eb" stroke="#111827" stroke-width="2"/>
<text x="965" y="144" font-family="sans-serif" font-size="12">base (training)</text>
<rect x="942" y="159" width="12" height="12" fill="#2563eb" stroke="#111827" stroke-width="2"/>
<text x="965" y="169" font-family="sans-serif" font-size="12">line_22 (training)</text>
<line x1="942" y1="184" x2="954" y2="196" stroke="#2563eb" stroke-width="2"/>
<line x1="942" y1="196" x2="954" y2="184" stroke="#2563eb" stroke-width="2"/>
<text x="965" y="194" font-family="sans-serif" font-size="12">generator_9 (training; no operating point)</text>
<polygon points="948,207 955,221 941,221" fill="#d97706" stroke="#111827" stroke-width="2"/>
<text x="965" y="219" font-family="sans-serif" font-size="12">line_33 (held-out)</text>
<circle cx="438.7771" cy="298.8608" r="7" fill="#2563eb" stroke="#111827" stroke-width="2"/>
<rect x="444.1153" y="301.9349" width="14" height="14" fill="#2563eb" stroke="#111827" stroke-width="2"/>
<polygon points="418.4582,273.2707 426.4582,289.2707 410.4582,289.2707" fill="#d97706" stroke="#111827" stroke-width="2"/>
<text x="935" y="264" font-family="sans-serif" font-size="12" font-weight="600">Design change</text>
<text x="935" y="284" font-family="sans-serif" font-size="11">slope: 0.075 → 0.06374097</text>
<text x="935" y="302" font-family="sans-serif" font-size="11">v_ref: 1 → 1.000614</text>
<text x="935" y="320" font-family="sans-serif" font-size="11">low edge: 0.99 → 0.9912272</text>
<text x="935" y="338" font-family="sans-serif" font-size="11">high edge: 1.01 → 1.010614</text>
<text x="935" y="356" font-family="sans-serif" font-size="11">objective change: -1.562979%</text>
</svg>
