<svg xmlns="http://www.w3.org/2000/svg" width="1180" height="680" viewBox="0 0 1180 680">
<title>M3 optimized droop: training scenarios</title><desc>Exact volt-var curves with operating points for the base case and every M2 contingency.</desc>
<rect width="100%" height="100%" fill="white"/>
<text x="90" y="28" font-family="sans-serif" font-size="20" font-weight="600">M3 optimized droop: training scenarios</text>
<line x1="90" y1="58" x2="90" y2="578" stroke="#e5e7eb"/>
<text x="90" y="600" text-anchor="middle" font-family="sans-serif" font-size="12">0.9186741</text>
<line x1="254" y1="58" x2="254" y2="578" stroke="#e5e7eb"/>
<text x="254" y="600" text-anchor="middle" font-family="sans-serif" font-size="12">0.9515726</text>
<line x1="418" y1="58" x2="418" y2="578" stroke="#e5e7eb"/>
<text x="418" y="600" text-anchor="middle" font-family="sans-serif" font-size="12">0.9844711</text>
<line x1="582" y1="58" x2="582" y2="578" stroke="#e5e7eb"/>
<text x="582" y="600" text-anchor="middle" font-family="sans-serif" font-size="12">1.01737</text>
<line x1="746" y1="58" x2="746" y2="578" stroke="#e5e7eb"/>
<text x="746" y="600" text-anchor="middle" font-family="sans-serif" font-size="12">1.050268</text>
<line x1="910" y1="58" x2="910" y2="578" stroke="#e5e7eb"/>
<text x="910" y="600" text-anchor="middle" font-family="sans-serif" font-size="12">1.083167</text>
<line x1="90" y1="578" x2="910" y2="578" stroke="#e5e7eb"/>
<text x="80" y="582" text-anchor="end" font-family="sans-serif" font-size="12">-1.16</text>
<line x1="90" y1="474" x2="910" y2="474" stroke="#e5e7eb"/>
<text x="80" y="478" text-anchor="end" font-family="sans-serif" font-size="12">-0.696</text>
<line x1="90" y1="370" x2="910" y2="370" stroke="#e5e7eb"/>
<text x="80" y="374" text-anchor="end" font-family="sans-serif" font-size="12">-0.232</text>
<line x1="90" y1="266" x2="910" y2="266" stroke="#e5e7eb"/>
<text x="80" y="270" text-anchor="end" font-family="sans-serif" font-size="12">0.232</text>
<line x1="90" y1="162" x2="910" y2="162" stroke="#e5e7eb"/>
<text x="80" y="166" text-anchor="end" font-family="sans-serif" font-size="12">0.696</text>
<line x1="90" y1="58" x2="910" y2="58" stroke="#e5e7eb"/>
<text x="80" y="62" text-anchor="end" font-family="sans-serif" font-size="12">1.16</text>
<rect x="90" y="58" width="820" height="520" fill="none" stroke="#374151"/>
<text x="500.0" y="652" text-anchor="middle" font-family="sans-serif" font-size="14">Voltage magnitude (pu)</text>
<text x="18" y="318.0" transform="rotate(-90 18 318.0)" text-anchor="middle" font-family="sans-serif" font-size="14">Reactive power Q (pu)</text>
<line x1="445.5616" y1="58" x2="445.5616" y2="578" stroke="#2563eb" stroke-dasharray="5,4" opacity="0.45"/>
<line x1="545.2621" y1="58" x2="545.2621" y2="578" stroke="#2563eb" stroke-dasharray="5,4" opacity="0.45"/>
<path d="M90 93.86207 L92.74247 93.86207 L95.48495 93.86207 L98.22742 93.86207 L100.9699 93.86207 L103.7124 93.86207 L106.4548 93.86207 L109.1973 93.86207 L111.9398 93.86207 L114.6823 93.86207 L117.4247 93.86207 L120.1672 93.86207 L122.9097 93.86207 L125.6522 93.86207 L128.3946 93.86207 L131.1371 93.86207 L133.8796 93.86207 L136.6221 93.86207 L139.3645 93.86207 L142.107 93.86207 L144.8495 93.86207 L147.592 93.86207 L150.3344 93.86207 L153.0769 93.86207 L155.8194 93.86207 L158.5619 93.86207 L161.3043 93.86207 L164.0468 93.86207 L166.7893 93.86207 L169.5318 93.86207 L172.2742 93.86207 L175.0167 93.86207 L177.7592 93.86207 L180.5017 93.86207 L183.2441 93.86207 L185.9866 93.86207 L188.7291 93.86207 L191.4716 93.86207 L194.214 93.86207 L196.9565 94.44332 L199.699 96.90947 L202.4415 99.37563 L205.1839 101.8418 L207.9264 104.3079 L210.6689 106.7741 L213.4114 109.2403 L216.1538 111.7064 L218.8963 114.1726 L221.6388 116.6387 L224.3813 119.1049 L227.1237 121.571 L229.8662 124.0372 L232.6087 126.5033 L235.3512 128.9695 L238.0936 131.4356 L240.8361 133.9018 L243.5786 136.368 L246.3211 138.8341 L249.0635 141.3003 L251.806 143.7664 L254.5485 146.2326 L257.291 148.6987 L260.0334 151.1649 L262.7759 153.631 L265.5184 156.0972 L268.2609 158.5634 L271.0033 161.0295 L273.7458 163.4957 L276.4883 165.9618 L279.2308 168.428 L281.9732 170.8941 L284.7157 173.3603 L287.4582 175.8264 L290.2007 178.2926 L292.9431 180.7588 L295.6856 183.2249 L298.4281 185.6911 L301.1706 188.1572 L303.913 190.6234 L306.6555 193.0895 L309.398 195.5557 L312.1405 198.0218 L314.8829 200.488 L317.6254 202.9541 L320.3679 205.4203 L323.1104 207.8865 L325.8528 210.3526 L328.5953 212.8188 L331.3378 215.2849 L334.0803 217.7511 L336.8227 220.2172 L339.5652 222.6834 L342.3077 225.1495 L345.0502 227.6157 L347.7926 230.0819 L350.5351 232.548 L353.2776 235.0142 L356.0201 237.4803 L358.7625 239.9465 L361.505 242.4126 L364.2475 244.8788 L366.99 247.3449 L369.7324 249.8111 L372.4749 252.2773 L375.2174 254.7434 L377.9599 257.2096 L380.7023 259.6757 L383.4448 262.1419 L386.1873 264.608 L388.9298 267.0742 L391.6722 269.5403 L394.4147 272.0065 L397.1572 274.4726 L399.8997 276.9388 L402.6421 279.405 L405.3846 281.8711 L408.1271 284.3373 L410.8696 286.8034 L413.612 289.2696 L416.3545 291.7357 L419.097 294.2019 L421.8395 296.668 L424.5819 299.1342 L427.3244 301.6004 L430.0669 304.0665 L432.8094 306.5327 L435.5518 308.9988 L438.2943 311.465 L441.0368 313.9311 L443.7793 316.3973 L446.5217 318 L449.2642 318 L452.0067 318 L454.7492 318 L457.4916 318 L460.2341 318 L462.9766 318 L465.7191 318 L468.4615 318 L471.204 318 L473.9465 318 L476.689 318 L479.4314 318 L482.1739 318 L484.9164 318 L487.6589 318 L490.4013 318 L493.1438 318 L495.8863 318 L498.6288 318 L501.3712 318 L504.1137 318 L506.8562 318 L509.5987 318 L512.3411 318 L515.0836 318 L517.8261 318 L520.5686 318 L523.311 318 L526.0535 318 L528.796 318 L531.5385 318 L534.2809 318 L537.0234 318 L539.7659 318 L542.5084 318 L545.2508 318 L547.9933 320.456 L550.7358 322.9222 L553.4783 325.3883 L556.2207 327.8545 L558.9632 330.3206 L561.7057 332.7868 L564.4482 335.2529 L567.1906 337.7191 L569.9331 340.1853 L572.6756 342.6514 L575.4181 345.1176 L578.1605 347.5837 L580.903 350.0499 L583.6455 352.516 L586.388 354.9822 L589.1304 357.4483 L591.8729 359.9145 L594.6154 362.3806 L597.3579 364.8468 L600.1003 367.313 L602.8428 369.7791 L605.5853 372.2453 L608.3278 374.7114 L611.0702 377.1776 L613.8127 379.6437 L616.5552 382.1099 L619.2977 384.576 L622.0401 387.0422 L624.7826 389.5084 L627.5251 391.9745 L630.2676 394.4407 L633.01 396.9068 L635.7525 399.373 L638.495 401.8391 L641.2375 404.3053 L643.9799 406.7714 L646.7224 409.2376 L649.4649 411.7038 L652.2074 414.1699 L654.9498 416.6361 L657.6923 419.1022 L660.4348 421.5684 L663.1773 424.0345 L665.9197 426.5007 L668.6622 428.9668 L671.4047 431.433 L674.1472 433.8991 L676.8896 436.3653 L679.6321 438.8315 L682.3746 441.2976 L685.1171 443.7638 L687.8595 446.2299 L690.602 448.6961 L693.3445 451.1622 L696.087 453.6284 L698.8294 456.0945 L701.5719 458.5607 L704.3144 461.0269 L707.0569 463.493 L709.7993 465.9592 L712.5418 468.4253 L715.2843 470.8915 L718.0268 473.3576 L720.7692 475.8238 L723.5117 478.2899 L726.2542 480.7561 L728.9967 483.2223 L731.7391 485.6884 L734.4816 488.1546 L737.2241 490.6207 L739.9666 493.0869 L742.709 495.553 L745.4515 498.0192 L748.194 500.4853 L750.9365 502.9515 L753.6789 505.4176 L756.4214 507.8838 L759.1639 510.35 L761.9064 512.8161 L764.6488 515.2823 L767.3913 517.7484 L770.1338 520.2146 L772.8763 522.6807 L775.6187 525.1469 L778.3612 527.613 L781.1037 530.0792 L783.8462 532.5454 L786.5886 535.0115 L789.3311 537.4777 L792.0736 539.9438 L794.8161 542.1379 L797.5585 542.1379 L800.301 542.1379 L803.0435 542.1379 L805.786 542.1379 L808.5284 542.1379 L811.2709 542.1379 L814.0134 542.1379 L816.7559 542.1379 L819.4983 542.1379 L822.2408 542.1379 L824.9833 542.1379 L827.7258 542.1379 L830.4682 542.1379 L833.2107 542.1379 L835.9532 542.1379 L838.6957 542.1379 L841.4381 542.1379 L844.1806 542.1379 L846.9231 542.1379 L849.6656 542.1379 L852.408 542.1379 L855.1505 542.1379 L857.893 542.1379 L860.6355 542.1379 L863.3779 542.1379 L866.1204 542.1379 L868.8629 542.1379 L871.6054 542.1379 L874.3478 542.1379 L877.0903 542.1379 L879.8328 542.1379 L882.5753 542.1379 L885.3177 542.1379 L888.0602 542.1379 L890.8027 542.1379 L893.5452 542.1379 L896.2876 542.1379 L899.0301 542.1379 L901.7726 542.1379 L904.5151 542.1379 L907.2575 542.1379 L910 542.1379 " fill="none" stroke="#2563eb" stroke-width="3"/>
<line x1="935" y1="76" x2="958" y2="76" stroke="#2563eb" stroke-width="3"/>
<text x="965" y="80" font-family="sans-serif" font-size="12">Control 1</text>
<line x1="451.6791" y1="58" x2="451.6791" y2="578" stroke="#d97706" stroke-dasharray="5,4" opacity="0.45"/>
<line x1="548.3209" y1="58" x2="548.3209" y2="578" stroke="#d97706" stroke-dasharray="5,4" opacity="0.45"/>
<path d="M90 93.86207 L92.74247 93.86207 L95.48495 93.86207 L98.22742 93.86207 L100.9699 93.86207 L103.7124 93.86207 L106.4548 93.86207 L109.1973 93.86207 L111.9398 93.86207 L114.6823 93.86207 L117.4247 93.86207 L120.1672 93.86207 L122.9097 93.86207 L125.6522 93.86207 L128.3946 93.86207 L131.1371 93.86207 L133.8796 93.86207 L136.6221 95.76204 L139.3645 97.69655 L142.107 99.63106 L144.8495 101.5656 L147.592 103.5001 L150.3344 105.4346 L153.0769 107.3691 L155.8194 109.3036 L158.5619 111.2381 L161.3043 113.1727 L164.0468 115.1072 L166.7893 117.0417 L169.5318 118.9762 L172.2742 120.9107 L175.0167 122.8452 L177.7592 124.7797 L180.5017 126.7143 L183.2441 128.6488 L185.9866 130.5833 L188.7291 132.5178 L191.4716 134.4523 L194.214 136.3868 L196.9565 138.3213 L199.699 140.2558 L202.4415 142.1904 L205.1839 144.1249 L207.9264 146.0594 L210.6689 147.9939 L213.4114 149.9284 L216.1538 151.8629 L218.8963 153.7974 L221.6388 155.732 L224.3813 157.6665 L227.1237 159.601 L229.8662 161.5355 L232.6087 163.47 L235.3512 165.4045 L238.0936 167.339 L240.8361 169.2735 L243.5786 171.2081 L246.3211 173.1426 L249.0635 175.0771 L251.806 177.0116 L254.5485 178.9461 L257.291 180.8806 L260.0334 182.8151 L262.7759 184.7497 L265.5184 186.6842 L268.2609 188.6187 L271.0033 190.5532 L273.7458 192.4877 L276.4883 194.4222 L279.2308 196.3567 L281.9732 198.2912 L284.7157 200.2258 L287.4582 202.1603 L290.2007 204.0948 L292.9431 206.0293 L295.6856 207.9638 L298.4281 209.8983 L301.1706 211.8328 L303.913 213.7674 L306.6555 215.7019 L309.398 217.6364 L312.1405 219.5709 L314.8829 221.5054 L317.6254 223.4399 L320.3679 225.3744 L323.1104 227.3089 L325.8528 229.2435 L328.5953 231.178 L331.3378 233.1125 L334.0803 235.047 L336.8227 236.9815 L339.5652 238.916 L342.3077 240.8505 L345.0502 242.7851 L347.7926 244.7196 L350.5351 246.6541 L353.2776 248.5886 L356.0201 250.5231 L358.7625 252.4576 L361.505 254.3921 L364.2475 256.3266 L366.99 258.2612 L369.7324 260.1957 L372.4749 262.1302 L375.2174 264.0647 L377.9599 265.9992 L380.7023 267.9337 L383.4448 269.8682 L386.1873 271.8028 L388.9298 273.7373 L391.6722 275.6718 L394.4147 277.6063 L397.1572 279.5408 L399.8997 281.4753 L402.6421 283.4098 L405.3846 285.3443 L408.1271 287.2789 L410.8696 289.2134 L413.612 291.1479 L416.3545 293.0824 L419.097 295.0169 L421.8395 296.9514 L424.5819 298.8859 L427.3244 300.8205 L430.0669 302.755 L432.8094 304.6895 L435.5518 306.624 L438.2943 308.5585 L441.0368 310.493 L443.7793 312.4275 L446.5217 314.362 L449.2642 316.2966 L452.0067 318 L454.7492 318 L457.4916 318 L460.2341 318 L462.9766 318 L465.7191 318 L468.4615 318 L471.204 318 L473.9465 318 L476.689 318 L479.4314 318 L482.1739 318 L484.9164 318 L487.6589 318 L490.4013 318 L493.1438 318 L495.8863 318 L498.6288 318 L501.3712 318 L504.1137 318 L506.8562 318 L509.5987 318 L512.3411 318 L515.0836 318 L517.8261 318 L520.5686 318 L523.311 318 L526.0535 318 L528.796 318 L531.5385 318 L534.2809 318 L537.0234 318 L539.7659 318 L542.5084 318 L545.2508 318 L547.9933 318 L550.7358 319.7034 L553.4783 321.638 L556.2207 323.5725 L558.9632 325.507 L561.7057 327.4415 L564.4482 329.376 L567.1906 331.3105 L569.9331 333.245 L572.6756 335.1795 L575.4181 337.1141 L578.1605 339.0486 L580.903 340.9831 L583.6455 342.9176 L586.388 344.8521 L589.1304 346.7866 L591.8729 348.7211 L594.6154 350.6557 L597.3579 352.5902 L600.1003 354.5247 L602.8428 356.4592 L605.5853 358.3937 L608.3278 360.3282 L611.0702 362.2627 L613.8127 364.1972 L616.5552 366.1318 L619.2977 368.0663 L622.0401 370.0008 L624.7826 371.9353 L627.5251 373.8698 L630.2676 375.8043 L633.01 377.7388 L635.7525 379.6734 L638.495 381.6079 L641.2375 383.5424 L643.9799 385.4769 L646.7224 387.4114 L649.4649 389.3459 L652.2074 391.2804 L654.9498 393.2149 L657.6923 395.1495 L660.4348 397.084 L663.1773 399.0185 L665.9197 400.953 L668.6622 402.8875 L671.4047 404.822 L674.1472 406.7565 L676.8896 408.6911 L679.6321 410.6256 L682.3746 412.5601 L685.1171 414.4946 L687.8595 416.4291 L690.602 418.3636 L693.3445 420.2981 L696.087 422.2326 L698.8294 424.1672 L701.5719 426.1017 L704.3144 428.0362 L707.0569 429.9707 L709.7993 431.9052 L712.5418 433.8397 L715.2843 435.7742 L718.0268 437.7088 L720.7692 439.6433 L723.5117 441.5778 L726.2542 443.5123 L728.9967 445.4468 L731.7391 447.3813 L734.4816 449.3158 L737.2241 451.2503 L739.9666 453.1849 L742.709 455.1194 L745.4515 457.0539 L748.194 458.9884 L750.9365 460.9229 L753.6789 462.8574 L756.4214 464.7919 L759.1639 466.7265 L761.9064 468.661 L764.6488 470.5955 L767.3913 472.53 L770.1338 474.4645 L772.8763 476.399 L775.6187 478.3335 L778.3612 480.268 L781.1037 482.2026 L783.8462 484.1371 L786.5886 486.0716 L789.3311 488.0061 L792.0736 489.9406 L794.8161 491.8751 L797.5585 493.8096 L800.301 495.7442 L803.0435 497.6787 L805.786 499.6132 L808.5284 501.5477 L811.2709 503.4822 L814.0134 505.4167 L816.7559 507.3512 L819.4983 509.2857 L822.2408 511.2203 L824.9833 513.1548 L827.7258 515.0893 L830.4682 517.0238 L833.2107 518.9583 L835.9532 520.8928 L838.6957 522.8273 L841.4381 524.7619 L844.1806 526.6964 L846.9231 528.6309 L849.6656 530.5654 L852.408 532.4999 L855.1505 534.4344 L857.893 536.3689 L860.6355 538.3034 L863.3779 540.238 L866.1204 542.1379 L868.8629 542.1379 L871.6054 542.1379 L874.3478 542.1379 L877.0903 542.1379 L879.8328 542.1379 L882.5753 542.1379 L885.3177 542.1379 L888.0602 542.1379 L890.8027 542.1379 L893.5452 542.1379 L896.2876 542.1379 L899.0301 542.1379 L901.7726 542.1379 L904.5151 542.1379 L907.2575 542.1379 L910 542.1379 " fill="none" stroke="#d97706" stroke-width="3" stroke-dasharray="10,6"/>
<line x1="935" y1="98" x2="958" y2="98" stroke="#d97706" stroke-width="3"/>
<text x="965" y="102" font-family="sans-serif" font-size="12">Control 2</text>
<circle cx="948" cy="136" r="6" fill="#9ca3af" stroke="#111827" stroke-width="2"/>
<text x="965" y="140" font-family="sans-serif" font-size="12">base</text>
<rect x="942" y="155" width="12" height="12" fill="#9ca3af" stroke="#111827" stroke-width="2"/>
<text x="965" y="165" font-family="sans-serif" font-size="12">line_22</text>
<polygon points="948,179 955,186 948,193 941,186" fill="#9ca3af" stroke="#111827" stroke-width="2"/>
<text x="965" y="190" font-family="sans-serif" font-size="12">generator_9</text>
<circle cx="424.4382" cy="299.005" r="10" fill="#2563eb" stroke="#111827" stroke-width="2"/>
<circle cx="424.5463" cy="298.8608" r="8" fill="#d97706" stroke="#111827" stroke-width="2"/>
<rect x="395.4936" y="271.9691" width="20" height="20" fill="#2563eb" stroke="#111827" stroke-width="2"/>
<rect x="430.8279" y="300.9349" width="16" height="16" fill="#d97706" stroke="#111827" stroke-width="2"/>
<polygon points="401.3599,267.2519 412.3599,278.2519 401.3599,289.2519 390.3599,278.2519" fill="#2563eb" stroke="#111827" stroke-width="2"/>
<text x="935" y="235" font-family="sans-serif" font-size="12" font-weight="600">Operating points</text>
<text x="935" y="255" font-family="sans-serif" font-size="11">G7 base — proportional</text>
<text x="935" y="275" font-family="sans-serif" font-size="11">G9 base — proportional</text>
<text x="935" y="295" font-family="sans-serif" font-size="11">G7 line_22 — proportional</text>
<text x="935" y="315" font-family="sans-serif" font-size="11">G9 line_22 — proportional</text>
<text x="935" y="335" font-family="sans-serif" font-size="11">G7 generator_9 — proportional</text>
</svg>
